<svg width="50" height="50" viewBox="0 0 50 50" fill="none" xmlns="http://www.w3.org/2000/svg">
<path d="M44.3476 10.6328C44.3476 10.6328 42.9882 10.4727 40.8554 10.2266L37.3945 6.75393C37.3945 6.75393 37.3945 6.75003 37.3906 6.75003L37.3789 6.73831C37.2539 6.6094 37.0898 6.51565 36.9062 6.50003L27.4218 5.51956C27.2617 5.50393 27.1172 5.54299 27 5.62503L23.1523 8.18362C17.789 7.57034 13.3906 7.07424 12.9297 7.05081C10.8359 6.93362 9.87106 7.00393 8.56637 7.6719C8.2109 7.80862 6.44137 8.89065 5.43356 9.60159C1.16403 12.8789 1.26559 17.1211 1.26559 20.5508V34.4649C1.26559 36.793 1.97262 39.6719 4.56247 39.6719L40.9922 43.8164C41.8437 43.9024 42.5976 43.5469 43.0547 42.9414C43.0547 42.961 48.1718 37.2266 48.1718 37.2266C48.5195 36.8438 48.7382 36.3321 48.7382 35.75V16.336C48.7343 13.4141 47.2382 10.8555 44.3476 10.6328V10.6328Z" fill="#2F2F2F"/>
<mask id="mask0_38_4" style="mask-type:luminance" maskUnits="userSpaceOnUse" x="1" y="5" width="48" height="39">
<path d="M44.3476 10.6328C44.3476 10.6328 42.9882 10.4727 40.8554 10.2266L37.3945 6.75393C37.3945 6.75393 37.3945 6.75003 37.3906 6.75003L37.3789 6.73831C37.2539 6.6094 37.0898 6.51565 36.9062 6.50003L27.4218 5.51956C27.2617 5.50393 27.1172 5.54299 27 5.62503L23.1523 8.18362C17.789 7.57034 13.3906 7.07424 12.9297 7.05081C10.8359 6.93362 9.87106 7.00393 8.56637 7.6719C8.2109 7.80862 6.44137 8.89065 5.43356 9.60159C1.16403 12.8789 1.26559 17.1211 1.26559 20.5508V34.4649C1.26559 36.793 1.97262 39.6719 4.56247 39.6719L40.9922 43.8164C41.8437 43.9024 42.5976 43.5469 43.0547 42.9414C43.0547 42.961 48.1718 37.2266 48.1718 37.2266C48.5195 36.8438 48.7382 36.3321 48.7382 35.75V16.336C48.7343 13.4141 47.2382 10.8555 44.3476 10.6328V10.6328Z" fill="white"/>
</mask>
<g mask="url(#mask0_38_4)">
<path d="M41.5039 44.8984L13.8867 40.8203V12.1016L41.5039 16.1758V44.8984Z" fill="#78A3AD"/>
</g>
<mask id="mask1_38_4" style="mask-type:luminance" maskUnits="userSpaceOnUse" x="1" y="5" width="48" height="39">
<path d="M44.3476 10.6328C44.3476 10.6328 42.9882 10.4727 40.8554 10.2266L37.3945 6.75393C37.3945 6.75393 37.3945 6.75003 37.3906 6.75003L37.3789 6.73831C37.2539 6.6094 37.0898 6.51565 36.9062 6.50003L27.4218 5.51956C27.2617 5.50393 27.1172 5.54299 27 5.62503L23.1523 8.18362C17.789 7.57034 13.3906 7.07424 12.9297 7.05081C10.8359 6.93362 9.87106 7.00393 8.56637 7.6719C8.2109 7.80862 6.44137 8.89065 5.43356 9.60159C1.16403 12.8789 1.26559 17.1211 1.26559 20.5508V34.4649C1.26559 36.793 1.97262 39.6719 4.56247 39.6719L40.9922 43.8164C41.8437 43.9024 42.5976 43.5469 43.0547 42.9414C43.0547 42.961 48.1718 37.2266 48.1718 37.2266C48.5195 36.8438 48.7382 36.3321 48.7382 35.75V16.336C48.7343 13.4141 47.2382 10.8555 44.3476 10.6328V10.6328Z" fill="white"/>
</mask>
<g mask="url(#mask1_38_4)">
<path d="M2.3125 12.9727C2.3125 12.9727 2.375 15.6914 4.51953 16.5469C6.66406 17.4063 10.168 17.6211 13.8867 14.4023L39.0547 17.1172C39.0547 17.1172 40.1758 17.2852 41.6172 17.2227C43.8125 17.125 45.2852 16.4102 47.5664 13.8984L49.6992 11.832L41.2734 10.4648L37.9531 7.30859L26.9727 6.03906L22.8984 8.29297L10.7305 7.11328L3.3125 11.043L2.3125 12.9727Z" fill="#78A3AD"/>
</g>
<mask id="mask2_38_4" style="mask-type:luminance" maskUnits="userSpaceOnUse" x="1" y="5" width="48" height="39">
<path d="M44.3476 10.6328C44.3476 10.6328 42.9882 10.4727 40.8554 10.2266L37.3945 6.75393C37.3945 6.75393 37.3945 6.75003 37.3906 6.75003L37.3789 6.73831C37.2539 6.6094 37.0898 6.51565 36.9062 6.50003L27.4218 5.51956C27.2617 5.50393 27.1172 5.54299 27 5.62503L23.1523 8.18362C17.789 7.57034 13.3906 7.07424 12.9297 7.05081C10.8359 6.93362 9.87106 7.00393 8.56637 7.6719C8.2109 7.80862 6.44137 8.89065 5.43356 9.60159C1.16403 12.8789 1.26559 17.1211 1.26559 20.5508V34.4649C1.26559 36.793 1.97262 39.6719 4.56247 39.6719L40.9922 43.8164C41.8437 43.9024 42.5976 43.5469 43.0547 42.9414C43.0547 42.961 48.1718 37.2266 48.1718 37.2266C48.5195 36.8438 48.7382 36.3321 48.7382 35.75V16.336C48.7343 13.4141 47.2382 10.8555 44.3476 10.6328V10.6328Z" fill="white"/>
</mask>
<g mask="url(#mask2_38_4)">
<path d="M6.42973 14.7539C6.42973 14.7539 5.35551 16.0391 5.35551 18.2578V34.0586C5.35551 34.0586 5.42582 37.9258 6.42973 39.9258L3.56254 40.0664C3.56254 40.0664 1.49223 38.4883 1.56254 34.1289V17.4688L3.56254 11.75L6.35942 10.6758L6.42973 14.7539Z" fill="#78A3AD"/>
</g>
<mask id="mask3_38_4" style="mask-type:luminance" maskUnits="userSpaceOnUse" x="1" y="5" width="48" height="39">
<path d="M44.3476 10.6328C44.3476 10.6328 42.9882 10.4727 40.8554 10.2266L37.3945 6.75393C37.3945 6.75393 37.3945 6.75003 37.3906 6.75003L37.3789 6.73831C37.2539 6.6094 37.0898 6.51565 36.9062 6.50003L27.4218 5.51956C27.2617 5.50393 27.1172 5.54299 27 5.62503L23.1523 8.18362C17.789 7.57034 13.3906 7.07424 12.9297 7.05081C10.8359 6.93362 9.87106 7.00393 8.56637 7.6719C8.2109 7.80862 6.44137 8.89065 5.43356 9.60159C1.16403 12.8789 1.26559 17.1211 1.26559 20.5508V34.4649C1.26559 36.793 1.97262 39.6719 4.56247 39.6719L40.9922 43.8164C41.8437 43.9024 42.5976 43.5469 43.0547 42.9414C43.0547 42.961 48.1718 37.2266 48.1718 37.2266C48.5195 36.8438 48.7382 36.3321 48.7382 35.75V16.336C48.7343 13.4141 47.2382 10.8555 44.3476 10.6328V10.6328Z" fill="white"/>
</mask>
<g mask="url(#mask3_38_4)">
<path d="M9.43359 14.7539C9.43359 14.7539 8.36327 16.0391 8.36327 18.2578V34.0586C8.36327 34.0586 8.43359 37.9258 9.43359 39.9258L6.5664 40.0664C6.5664 40.0664 4.49218 38.4883 4.5664 34.1289V17.4688L6.5664 11.75L9.36327 10.6758L9.43359 14.7539Z" fill="#78A3AD"/>
</g>
<path d="M41.2422 44.8594C41.125 44.8594 41.0078 44.8516 40.8828 44.8399L4.44139 40.6953H4.42967C1.8867 40.6953 0.234359 38.3086 0.234359 34.4688V20.3125C0.230453 16.9297 0.226547 12.293 4.80467 8.77737C5.73436 8.12112 7.67186 6.90628 8.1953 6.70315C9.5078 6.02737 10.6172 5.88675 12.9844 6.01565C13.3984 6.03909 16.3672 6.36722 22.8906 7.11331L26.4258 4.76565C26.7109 4.56643 27.1523 4.45315 27.5234 4.49222L37.0078 5.47269C37.4062 5.51175 37.7851 5.69534 38.082 5.98831C38.0976 6.00393 38.1133 6.01565 38.125 6.03128L41.3242 9.24222L44.4609 9.6055C47.6133 9.85159 49.7539 12.5547 49.7539 16.3282V35.7422C49.7539 36.5469 49.4609 37.3164 48.9258 37.9102L48.875 37.8672C47.7265 39.5782 43.8086 43.6289 43.7617 43.6758C43.2539 44.3867 42.2969 44.8594 41.2422 44.8594ZM11.5781 8.03128C10.4765 8.03128 9.85936 8.16409 9.03905 8.58597C8.67576 8.74222 7.08592 9.69534 6.02733 10.4414C2.28905 13.3086 2.29295 17.0313 2.29295 20.3125V34.4688C2.29295 35.4492 2.45702 38.6446 4.56248 38.6446L41.2461 42.8008C41.6445 42.8008 42.0039 42.625 42.2305 42.3242C42.2617 42.2813 42.2969 42.2422 42.332 42.2071C42.6055 41.918 45.4961 38.6797 47.4062 36.543C47.543 36.3907 47.707 36.125 47.707 35.75V16.336C47.707 14.3047 46.8086 11.8594 44.2695 11.6602L40.7383 11.25C40.5078 11.2227 40.293 11.1172 40.1289 10.9532L36.6992 7.51175L27.457 6.55862L23.7226 9.03909C23.5195 9.1719 23.2734 9.2305 23.0351 9.20315C20.6562 8.92972 13.418 8.10159 12.875 8.07425C12.3867 8.0469 11.9609 8.03128 11.5781 8.03128Z" fill="#2F2F2F"/>
<path d="M35.8203 8.89844L31.4883 12.0977L34.5469 16.5664L39.1172 12.3633L35.8203 8.89844Z" fill="#2F2F2F"/>
<path d="M23.8086 11.6328L29.3086 12.1992L31.7617 15.1953L20.9531 13.9844L23.8086 11.6328Z" fill="white"/>
<path d="M10.4843 12.5039C10.3866 12.1523 10.1874 11.6328 8.69913 11.3906C7.89444 11.2578 6.77725 11.4141 6.19522 12.0234C5.92959 12.2969 5.89444 12.7578 5.89444 12.7578C5.89444 12.7578 5.871 13.4961 5.91788 13.793C5.96475 14.0664 6.22256 14.3281 6.46084 14.4727C6.81241 14.6875 7.24991 14.8242 7.67569 14.8594C7.94131 14.8789 8.20694 14.8789 8.46866 14.8555C9.10928 14.8008 9.78897 14.6172 10.2538 14.1875C10.4726 13.9844 10.5077 13.5039 10.5077 13.5039C10.5077 13.5039 10.5702 12.8164 10.4843 12.5039ZM1.26553 20.2656C1.26553 20.2656 6.83584 22.5039 8.83975 21.6445C10.8437 20.7852 9.41397 27.0781 9.41397 27.0781C9.41397 27.0781 10.2733 32.2266 10.5546 35.3711C10.8437 38.5195 9.41397 40.2344 9.41397 40.2344C9.41397 40.2344 2.26553 41.0938 1.69131 38.2344C1.11709 35.375 1.26553 20.2656 1.26553 20.2656ZM13.8163 19.8438L42.4179 23.2734L41.8437 43.8672L13.246 40.1484L12.7538 24.4141L13.8163 19.8438Z" fill="#2F2F2F"/>
<path d="M47.4141 36.7852C45.5078 38.9219 42.5977 41.918 42.3281 42.207C42.293 42.2422 42.2578 42.2813 42.2266 42.3242C42 42.6289 41.6406 42.8008 41.2422 42.8008L4.5625 38.6406C3.89844 38.6406 3.17187 38.4727 2.33984 38.1523C1.1875 37.6445 1.05078 37.375 0.480469 36.7578C1.01563 39.2266 2.44531 40.6953 4.43359 40.6953H4.44531L40.8867 44.8398C41.0078 44.8516 41.1289 44.8594 41.2461 44.8594C42.2969 44.8594 43.2578 44.3867 43.7773 43.6797C43.8203 43.6328 47.7422 39.6797 48.9727 37.9922L49.2422 37.6445C49.6953 37.0234 49.7656 36.5547 49.7656 35.75L49.75 34.1875C49.0273 35.0977 49.0156 35.2695 47.4141 36.7852Z" fill="#78A3AD"/>
<path d="M34.1445 32.6055C33.3906 25.6016 27.1016 20.5352 20.0977 21.2852C17.6953 21.543 15.5273 22.4648 13.7422 23.832L13.7305 23.8203L10.3398 26.6484C8.03906 29.2422 6.79297 32.7461 7.1914 36.4648C7.9414 43.4687 14.2305 48.5352 21.2344 47.7852C22.5625 47.6406 23.8164 47.3008 24.9805 46.793L26.5781 46.0625L26.7695 45.9336L29.3203 44.0195L29.3086 44.0078C32.6602 41.3828 34.6328 37.1523 34.1445 32.6055V32.6055Z" fill="#2F2F2F"/>
<mask id="mask4_38_4" style="mask-type:luminance" maskUnits="userSpaceOnUse" x="7" y="21" width="28" height="27">
<path d="M34.1445 32.6055C33.3906 25.6016 27.1016 20.5352 20.0977 21.2852C17.6953 21.543 15.5273 22.4648 13.7422 23.832L13.7305 23.8203L10.3398 26.6484C8.03906 29.2422 6.79297 32.7461 7.1914 36.4648C7.9414 43.4687 14.2305 48.5352 21.2344 47.7852C22.5625 47.6406 23.8164 47.3008 24.9805 46.793L26.5781 46.0625L26.7695 45.9336L29.3203 44.0195L29.3086 44.0078C32.6602 41.3828 34.6328 37.1523 34.1445 32.6055V32.6055Z" fill="white"/>
</mask>
<g mask="url(#mask4_38_4)">
<path d="M19.7109 30.8711L29.8672 23.2929C29.8672 23.2929 23.7852 18.2148 16.8516 21.4336L6.91406 27.9414L19.7109 30.8711Z" fill="#78A3AD"/>
</g>
<mask id="mask5_38_4" style="mask-type:luminance" maskUnits="userSpaceOnUse" x="7" y="21" width="28" height="27">
<path d="M34.1445 32.6055C33.3906 25.6016 27.1016 20.5352 20.0977 21.2852C17.6953 21.543 15.5273 22.4648 13.7422 23.832L13.7305 23.8203L10.3398 26.6484C8.03906 29.2422 6.79297 32.7461 7.1914 36.4648C7.9414 43.4687 14.2305 48.5352 21.2344 47.7852C22.5625 47.6406 23.8164 47.3008 24.9805 46.793L26.5781 46.0625L26.7695 45.9336L29.3203 44.0195L29.3086 44.0078C32.6602 41.3828 34.6328 37.1523 34.1445 32.6055V32.6055Z" fill="white"/>
</mask>
<g mask="url(#mask5_38_4)">
<path d="M12.3281 27.5039L22.4844 19.9258C22.4844 19.9258 16.4063 14.8476 9.46875 18.0664L-0.46875 24.5742L12.3281 27.5039Z" fill="white"/>
</g>
<path d="M30.8282 35.4414C31.0235 42.1563 25.8477 47.793 18.9298 48C12.0079 48.2071 6.34773 43.1836 6.14851 36.4688C5.94929 29.7539 11.004 23.8594 17.9298 23.6563C24.8555 23.4492 30.6251 28.7266 30.8282 35.4414Z" fill="#2F2F2F"/>
<path d="M28.668 35.5039C28.832 41.0625 24.3203 45.707 18.5898 45.8789C12.8594 46.0469 8.07812 41.6797 7.91405 36.1211C7.7539 30.5664 12.2578 25.918 17.9883 25.75C23.7226 25.5781 28.5039 29.9492 28.668 35.5039Z" fill="white"/>
<path d="M25.9804 35.6953C26.4569 40.1484 23.2343 44.1484 18.7812 44.625C14.3241 45.1015 10.328 41.8828 9.85146 37.4297C9.3749 32.9765 12.5937 28.9765 17.0468 28.4961C21.5038 28.0195 25.5038 31.2422 25.9804 35.6953Z" fill="#40C0E7"/>
<path d="M19.2695 42.3906C15.3554 42.5078 12.0937 39.4531 11.9804 35.5742C11.8984 32.7188 13.5429 30.2109 15.9804 29.0391C12.6171 29.9844 10.1952 33.0938 10.3124 36.7148C10.4335 40.9883 14.0312 44.3477 18.332 44.2188C22.246 44.1016 25.3945 41.1406 25.8437 37.3906C25.4096 38.8076 24.5416 40.0525 23.362 40.9496C22.1824 41.8467 20.7509 42.3508 19.2695 42.3906Z" fill="#006CA2"/>
<path d="M21.2986 36.9027C23.0468 36.7148 24.3116 35.1452 24.1236 33.3971C23.9357 31.6489 22.3662 30.3841 20.618 30.572C18.8698 30.7599 17.605 32.3295 17.7929 34.0776C17.9809 35.8258 19.5504 37.0906 21.2986 36.9027Z" fill="#006CA2"/>
<path d="M15.7384 40.9844C15.3712 40.6601 14.9767 40.3711 14.8126 40.2148C14.4337 39.8476 14.1329 39.4219 13.8478 38.9687C13.6056 38.582 13.3829 38.0195 12.8712 37.9414C12.0899 37.8164 11.8556 38.6797 12.0392 39.2734C12.1642 39.6719 12.3478 40.0547 12.5587 40.4141C12.9689 41.1172 15.5743 43.5937 16.1837 41.9219C16.3243 41.5273 16.0001 41.2148 15.7384 40.9844ZM17.1485 43.1758C16.8985 42.9805 16.7735 42.6562 17.0079 42.2578C17.2149 41.9023 17.5782 41.8476 17.9532 41.957C18.3243 42.0703 18.5587 42.5586 18.4454 42.9219C18.2814 43.4766 17.547 43.4883 17.1485 43.1758Z" fill="white"/>
</svg>
