<svg width="50" height="50" viewBox="0 0 50 50" fill="none" xmlns="http://www.w3.org/2000/svg">
<path d="M25.0833 4.16667C13.7083 4.16667 4.4375 13.4375 4.4375 24.8125C4.4375 28.4583 5.39584 32 7.1875 35.125L4.27084 45.8333L15.2083 42.9583C18.2292 44.6042 21.625 45.4792 25.0833 45.4792C36.4583 45.4792 45.7292 36.2083 45.7292 24.8333C45.7292 19.3125 43.5833 14.125 39.6875 10.2292C37.7775 8.29985 35.5025 6.77015 32.9951 5.72928C30.4877 4.68841 27.7982 4.15722 25.0833 4.16667ZM25.1042 7.64584C29.6875 7.64584 33.9792 9.43751 37.2292 12.6875C38.8242 14.282 40.0887 16.1757 40.9503 18.2599C41.8119 20.3442 42.2536 22.578 42.25 24.8333C42.25 34.2917 34.5417 41.9792 25.0833 41.9792C22 41.9792 18.9792 41.1667 16.3542 39.5833L15.7292 39.2292L9.22917 40.9375L10.9583 34.6042L10.5417 33.9375C8.82071 31.2056 7.91044 28.0413 7.91667 24.8125C7.9375 15.3542 15.625 7.64584 25.1042 7.64584ZM17.7708 15.2708C17.4375 15.2708 16.875 15.3958 16.3958 15.9167C15.9375 16.4375 14.5833 17.7083 14.5833 20.2292C14.5833 22.7708 16.4375 25.2083 16.6667 25.5625C16.9583 25.9167 20.3333 31.125 25.5208 33.3333C26.75 33.8958 27.7083 34.2083 28.4583 34.4375C29.6875 34.8333 30.8125 34.7708 31.7083 34.6458C32.7083 34.5 34.75 33.3958 35.1875 32.1875C35.625 30.9792 35.625 29.9583 35.5 29.7292C35.3542 29.5208 35.0208 29.3958 34.5 29.1667C33.9792 28.875 31.4375 27.625 30.9792 27.4583C30.5 27.2917 30.2083 27.2083 29.8125 27.7083C29.4792 28.2292 28.4792 29.3958 28.1875 29.7292C27.875 30.0833 27.5833 30.125 27.0833 29.875C26.5417 29.6042 24.875 29.0625 22.9167 27.3125C21.375 25.9375 20.3542 24.25 20.0417 23.7292C19.7917 23.2292 20.0208 22.9167 20.2708 22.6875C20.5 22.4583 20.8333 22.0833 21.0417 21.7708C21.3125 21.4792 21.3958 21.25 21.5625 20.9167C21.7292 20.5625 21.6458 20.2708 21.5208 20.0208C21.3958 19.7917 20.3542 17.2083 19.9167 16.1875C19.5 15.1875 19.0833 15.3125 18.75 15.2917C18.4583 15.2917 18.125 15.2708 17.7708 15.2708Z" fill="#0996CE"/>
</svg>
