<svg width="50" height="50" viewBox="0 0 50 50" fill="none" xmlns="http://www.w3.org/2000/svg">
<g clip-path="url(#clip0_36_40)">
<path d="M41.6992 0H8.30078C3.71639 0 0 3.80558 0 8.5V41.42C0 46.1144 3.71639 49.92 8.30078 49.92H41.6992C46.2836 49.92 50 46.1144 50 41.42V8.5C50 3.80558 46.2836 0 41.6992 0Z" fill="#001E36"/>
<path d="M26.2583 35.2818H13.0429C12.8191 35.2818 12.7073 35.1558 12.7075 34.9038V13.094C12.7017 13.052 12.7054 13.0092 12.7185 12.969C12.7316 12.9287 12.7536 12.8922 12.7829 12.8622C12.8122 12.8322 12.8479 12.8095 12.8872 12.7961C12.9265 12.7827 12.9683 12.7788 13.0093 12.7848H17.1015C17.1334 12.7802 17.1659 12.7833 17.1964 12.7937C17.227 12.8042 17.2547 12.8218 17.2775 12.8451C17.3003 12.8684 17.3174 12.8969 17.3276 12.9282C17.3378 12.9595 17.3408 12.9928 17.3362 13.0254V30.9544H26.9626C27.1638 30.9544 27.2421 31.0574 27.1976 31.2634L26.5937 34.9728C26.5922 35.0234 26.5794 35.073 26.5561 35.1177C26.5328 35.1624 26.4998 35.201 26.4595 35.2304C26.3973 35.2635 26.3284 35.2812 26.2583 35.282V35.2818ZM29.5786 18.2114H33.2347C33.4386 18.2134 33.6167 18.3534 33.6706 18.555C33.7505 18.7054 33.8071 18.8676 33.8386 19.0358C33.8853 19.2568 33.9187 19.4804 33.939 19.7056C33.961 19.946 33.9722 20.2036 33.9726 20.4784C34.5996 19.7308 35.3557 19.1079 36.203 18.6408C37.155 18.1138 38.2238 17.8476 39.3058 17.868C39.3468 17.862 39.3886 17.8659 39.4279 17.8793C39.4672 17.8927 39.5029 17.9154 39.5321 17.9454C39.5614 17.9754 39.5835 18.0119 39.5966 18.0522C39.6096 18.0924 39.6134 18.1352 39.6075 18.1772V22.3332C39.6075 22.4936 39.4958 22.5736 39.2722 22.5736C37.921 22.488 36.5695 22.7353 35.331 23.2948C34.9101 23.4812 34.5285 23.7495 34.2073 24.0848V34.9728C34.2073 35.1788 34.1179 35.2818 33.939 35.2818H29.8804C29.8348 35.2885 29.7884 35.2842 29.7447 35.2693C29.701 35.2544 29.6614 35.2293 29.6288 35.196C29.5963 35.1627 29.5717 35.1221 29.5572 35.0773C29.5427 35.0326 29.5385 34.9851 29.545 34.9384V23.123C29.545 22.8354 29.5433 22.5382 29.5396 22.2316L29.5327 21.7648C29.5314 21.6858 29.53 21.6062 29.5282 21.526C29.5197 21.1084 29.5081 20.6908 29.4935 20.2734L29.4778 19.8602C29.463 19.3883 29.4183 18.9179 29.3439 18.452C29.336 18.4209 29.3357 18.3882 29.3429 18.357C29.3502 18.3257 29.3648 18.2967 29.3855 18.2725C29.4062 18.2483 29.4323 18.2296 29.4617 18.2182C29.491 18.2067 29.5226 18.2027 29.5538 18.2066L29.5786 18.2114Z" fill="#31A8FF"/>
</g>
<defs>
<clipPath id="clip0_36_40">
<rect width="50" height="50" fill="white"/>
</clipPath>
</defs>
</svg>
