<svg width="50" height="50" viewBox="0 0 50 50" fill="none" xmlns="http://www.w3.org/2000/svg">
<path d="M4.94849 5.4953H45.0516V44.5047H4.94849V5.4953Z" fill="#0C0824"/>
<path d="M4.94844 5.49531H45.0516V44.5047H4.94844V5.49531ZM3.125 46.3281H46.875V3.67188H3.125V46.3281ZM32.6203 21.1719C31.1797 21.1719 30.6875 21.9016 30.6875 22.5031C30.6875 23.1594 31.0156 23.6156 32.9484 24.6172C35.8109 26.0031 36.6984 27.3328 36.6984 29.2844C36.6984 32.2016 34.475 33.7687 31.4672 33.7687C30.1763 33.8166 28.8933 33.5484 27.7297 32.9875C27.6016 32.9328 27.5844 32.8422 27.5844 32.6953V30.0125C27.5844 29.8297 27.675 29.775 27.8031 29.8672C28.8959 30.5699 30.1679 30.9431 31.4672 30.9422C32.9078 30.9422 33.5094 30.3406 33.5094 29.5203C33.5094 28.8641 33.0906 28.2812 31.2484 27.3328C28.6594 26.0938 27.5844 24.8328 27.5844 22.7391C27.5844 20.3875 29.425 18.4375 32.6156 18.4375C33.7262 18.3898 34.8353 18.5635 35.8781 18.9484C35.9382 18.9874 35.9868 19.0417 36.0189 19.1057C36.051 19.1697 36.0655 19.241 36.0609 19.3125V21.8125C36.0609 21.9578 35.9703 22.05 35.7875 21.9953C34.8237 21.4405 33.7276 21.157 32.6156 21.175L32.6203 21.1719ZM16.9422 23.3406C17.3609 23.3766 17.6891 23.3766 18.4187 23.3766C20.5516 23.3766 22.5562 22.6297 22.5562 19.7313C22.5562 17.4156 21.1156 16.25 18.6922 16.25C17.9625 16.25 17.2703 16.2859 16.9422 16.3047V23.3406ZM13.6969 13.6531C13.6969 13.525 13.9516 13.4344 14.0984 13.4344C15.6653 13.3703 17.2334 13.3401 18.8016 13.3438C23.8516 13.3438 25.8203 16.1141 25.8203 19.6516C25.8203 24.2812 22.4656 26.2687 18.3469 26.2687C17.6547 26.2687 17.4172 26.2328 16.925 26.2328V33.2328C16.925 33.3781 16.8703 33.4516 16.7063 33.4516H13.9172C13.7719 33.4516 13.6984 33.3969 13.6984 33.2328V13.6609L13.6969 13.6531Z" fill="#31C5F0"/>
</svg>
