<svg width="50" height="50" viewBox="0 0 50 50" fill="none" xmlns="http://www.w3.org/2000/svg">
<path d="M28.9625 3.62656V8.09999C34.275 8.12968 40.4578 8.04531 45.7656 8.12499C46.7688 8.12499 46.8125 9.01249 46.825 9.78749C46.9094 19.0719 46.8047 28.6234 46.875 37.9125C46.8563 38.2781 46.8656 39.6312 46.8547 40.0156C46.8203 41.3016 46.1766 41.3578 44.8906 41.3969C44.6844 41.3969 44.0781 41.4062 43.8781 41.4156C38.9078 41.3906 33.9375 41.4016 28.9625 41.4016V46.3734L3.125 42.3969V7.61406L28.9625 3.62656Z" fill="#D33922"/>
<path d="M28.9624 9.59064H45.3687V39.9031H28.9624V35.9375H40.8906V33.9453H28.9624V31.4609H40.8906V29.4734H28.9671C28.9671 28.4985 28.9671 27.525 28.9578 26.5516C29.9337 26.9036 30.9758 27.0337 32.0083 26.9324C33.0408 26.831 34.0377 26.5008 34.9265 25.9656C35.8324 25.3703 36.5829 24.5671 37.1154 23.6228C37.6478 22.6786 37.9468 21.6208 37.9874 20.5375C35.8 20.5219 33.6234 20.5281 31.4468 20.5281C31.4468 18.3656 31.4718 16.2047 31.4015 14.0469C30.5859 14.2031 29.7718 14.375 28.9609 14.5484V9.5922" fill="white"/>
<path d="M32.4468 13.0063C34.1417 13.1125 35.74 13.8317 36.9435 15.0298C38.147 16.2278 38.8735 17.8228 38.9874 19.5172C36.8 19.5422 34.6234 19.5328 32.4421 19.5328V13.0063" fill="#D33922"/>
<path d="M11.0938 16.7594C13.7922 16.889 17.0625 15.6906 19.3 17.714C21.4422 20.314 20.875 25.0953 17.7 26.65C16.5456 27.1071 15.2941 27.2641 14.0625 27.1062C14.0625 29.05 14.0532 30.9937 14.0625 32.9359C13.0782 32.8515 12.0891 32.7672 11.1047 32.6875C11.0594 27.375 11.05 22.0625 11.1047 16.75" fill="white"/>
<path d="M14.0516 19.4469C15.0313 19.4015 16.2391 19.2234 16.9047 20.1422C17.1708 20.6425 17.3153 21.1984 17.3265 21.765C17.3376 22.3315 17.215 22.8928 16.9688 23.4031C16.4016 24.4265 15.1203 24.3281 14.1313 24.4469C14.0266 22.7812 14.0375 21.1172 14.0516 19.4469Z" fill="#D33922"/>
</svg>
