<svg width="50" height="50" viewBox="0 0 50 50" fill="none" xmlns="http://www.w3.org/2000/svg">
<g clip-path="url(#clip0_36_63)">
<path d="M24.7883 0.0141296C12.1258 0.0141296 12.9164 5.52687 12.9164 5.52687L12.9305 11.2382H25.0141V12.953H8.13106C8.13106 12.953 0.0283203 12.0304 0.0283203 24.8569C0.0283203 37.6837 7.10059 37.2288 7.10059 37.2288H11.3213V31.2767C11.3213 31.2767 11.0938 24.1767 18.2807 24.1767H30.2654C30.2654 24.1767 36.9988 24.2859 36.9988 17.6435V6.6608C36.9988 6.6608 38.0215 0.0141296 24.7883 0.0141296ZM18.1254 3.85491C18.4109 3.85466 18.6937 3.91093 18.9576 4.02051C19.2214 4.13009 19.4612 4.29083 19.6631 4.49353C19.865 4.69624 20.0251 4.93692 20.1343 5.20181C20.2434 5.4667 20.2995 5.7506 20.2992 6.03727C20.2995 6.32393 20.2434 6.60783 20.1343 6.87272C20.0251 7.13761 19.865 7.3783 19.6631 7.581C19.4612 7.7837 19.2214 7.94444 18.9576 8.05402C18.6937 8.16361 18.4109 8.21988 18.1254 8.21962C17.8398 8.21988 17.5571 8.16361 17.2932 8.05402C17.0293 7.94444 16.7896 7.7837 16.5877 7.581C16.3858 7.3783 16.2257 7.13761 16.1165 6.87272C16.0074 6.60783 15.9513 6.32393 15.9516 6.03727C15.9513 5.7506 16.0074 5.4667 16.1165 5.20181C16.2257 4.93692 16.3858 4.69624 16.5877 4.49353C16.7896 4.29083 17.0293 4.13009 17.2932 4.02051C17.5571 3.91093 17.8398 3.85466 18.1254 3.85491Z" fill="url(#paint0_linear_36_63)"/>
<path d="M25.1478 49.8286C37.8103 49.8286 37.0196 44.3159 37.0196 44.3159L37.0056 38.6047H24.9218V36.89H41.8048C41.8048 36.89 49.9075 37.8126 49.9075 24.9857C49.9075 12.159 42.8353 12.6139 42.8353 12.6139H38.6146V18.5659C38.6146 18.5659 38.8421 25.6659 31.6552 25.6659H19.6704C19.6704 25.6659 12.937 25.5567 12.937 32.1992V43.1822C12.937 43.1822 11.9146 49.8286 25.1476 49.8286H25.1478ZM31.8107 45.9882C31.5251 45.9885 31.2423 45.9322 30.9785 45.8227C30.7146 45.7131 30.4749 45.5523 30.2729 45.3496C30.071 45.1469 29.9109 44.9062 29.8018 44.6413C29.6926 44.3765 29.6366 44.0926 29.6368 43.8059C29.6365 43.5192 29.6926 43.2353 29.8017 42.9704C29.9109 42.7055 30.071 42.4648 30.2729 42.262C30.4748 42.0593 30.7145 41.8986 30.9784 41.789C31.2423 41.6794 31.5251 41.6231 31.8107 41.6233C32.0962 41.6231 32.379 41.6794 32.6428 41.7889C32.9067 41.8985 33.1464 42.0593 33.3484 42.262C33.5503 42.4647 33.7104 42.7054 33.8195 42.9702C33.9287 43.2351 33.9847 43.519 33.9845 43.8057C33.9847 44.0924 33.9287 44.3763 33.8195 44.6412C33.7104 44.906 33.5503 45.1467 33.3484 45.3494C33.1464 45.5521 32.9067 45.7129 32.6428 45.8225C32.379 45.932 32.0962 45.9885 31.8107 45.9882Z" fill="url(#paint1_linear_36_63)"/>
</g>
<defs>
<linearGradient id="paint0_linear_36_63" x1="479.367" y1="448.066" x2="2960.81" y2="2895.16" gradientUnits="userSpaceOnUse">
<stop stop-color="#387EB8"/>
<stop offset="1" stop-color="#366994"/>
</linearGradient>
<linearGradient id="paint1_linear_36_63" x1="720.441" y1="778.494" x2="3384.74" y2="3287.31" gradientUnits="userSpaceOnUse">
<stop stop-color="#FFE052"/>
<stop offset="1" stop-color="#FFC331"/>
</linearGradient>
<clipPath id="clip0_36_63">
<rect width="50" height="50" fill="white"/>
</clipPath>
</defs>
</svg>
