<svg width="50" height="50" viewBox="0 0 50 50" fill="none" xmlns="http://www.w3.org/2000/svg">
<path d="M45.0094 4.6875H15.1641C14.9195 4.6873 14.6773 4.73527 14.4512 4.82868C14.2252 4.92209 14.0198 5.05911 13.8467 5.23191C13.6736 5.40472 13.5362 5.60992 13.4424 5.83581C13.3486 6.0617 13.3003 6.30385 13.3 6.54844V14.8438L30.5954 19.9219L46.875 14.8438V6.54844C46.8748 6.30372 46.8264 6.06144 46.7325 5.83545C46.6386 5.60946 46.5011 5.40418 46.3279 5.23136C46.1546 5.05853 45.949 4.92155 45.7228 4.82823C45.4965 4.73491 45.2541 4.68709 45.0094 4.6875Z" fill="#41A5EE"/>
<path d="M46.875 14.8438H13.3V25L30.5954 28.0469L46.875 25V14.8438Z" fill="#2B7CD3"/>
<path d="M13.3 25V35.1562L29.5782 37.1875L46.875 35.1562V25H13.3Z" fill="#185ABD"/>
<path d="M15.1641 45.3125H45.0079C45.2527 45.3131 45.4953 45.2654 45.7217 45.1722C45.9481 45.079 46.1539 44.942 46.3273 44.7692C46.5008 44.5964 46.6384 44.391 46.7324 44.1649C46.8264 43.9388 46.8748 43.6964 46.875 43.4516V35.1562H13.3V43.4516C13.3003 43.6961 13.3486 43.9383 13.4424 44.1642C13.5362 44.3901 13.6736 44.5953 13.8467 44.7681C14.0198 44.9409 14.2252 45.0779 14.4512 45.1713C14.6773 45.2647 14.9195 45.3127 15.1641 45.3125Z" fill="#103F91"/>
<path opacity="0.1" d="M25.6782 12.8125H13.3V38.2031H25.6782C26.1714 38.2007 26.6438 38.004 26.993 37.6556C27.3422 37.3073 27.5401 36.8354 27.5438 36.3422V14.6734C27.5401 14.1802 27.3422 13.7083 26.993 13.36C26.6438 13.0117 26.1714 12.815 25.6782 12.8125Z" fill="black"/>
<path opacity="0.2" d="M24.661 13.8281H13.3V39.2188H24.661C25.1542 39.2163 25.6266 39.0196 25.9758 38.6713C26.325 38.3229 26.5229 37.851 26.5266 37.3578V15.6891C26.5229 15.1958 26.325 14.7239 25.9758 14.3756C25.6266 14.0273 25.1542 13.8306 24.661 13.8281Z" fill="black"/>
<path opacity="0.2" d="M24.661 13.8281H13.3V37.1875H24.661C25.1542 37.185 25.6266 36.9883 25.9758 36.64C26.325 36.2917 26.5229 35.8198 26.5266 35.3266V15.6891C26.5229 15.1958 26.325 14.7239 25.9758 14.3756C25.6266 14.0273 25.1542 13.8306 24.661 13.8281Z" fill="black"/>
<path opacity="0.2" d="M23.6438 13.8281H13.3V37.1875H23.6438C24.137 37.185 24.6094 36.9883 24.9586 36.64C25.3078 36.2917 25.5057 35.8198 25.5094 35.3266V15.6891C25.5057 15.1958 25.3078 14.7239 24.9586 14.3756C24.6094 14.0273 24.137 13.8306 23.6438 13.8281Z" fill="black"/>
<path d="M4.99063 13.8281H23.6437C24.1379 13.8277 24.6119 14.0235 24.9617 14.3724C25.3116 14.7214 25.5085 15.195 25.5094 15.6891V34.3109C25.5085 34.805 25.3116 35.2786 24.9617 35.6276C24.6119 35.9765 24.1379 36.1723 23.6437 36.1719H4.99063C4.74591 36.1723 4.50351 36.1245 4.27728 36.0311C4.05105 35.9378 3.84543 35.8008 3.67217 35.628C3.49891 35.4552 3.36141 35.2499 3.26752 35.0239C3.17363 34.7979 3.1252 34.5557 3.125 34.3109V15.6891C3.1252 15.4443 3.17363 15.2021 3.26752 14.9761C3.36141 14.7501 3.49891 14.5448 3.67217 14.372C3.84543 14.1992 4.05105 14.0622 4.27728 13.9689C4.50351 13.8755 4.74591 13.8277 4.99063 13.8281Z" fill="url(#paint0_linear_36_20)"/>
<path d="M10.7813 28.1063C10.8172 28.3938 10.8422 28.6437 10.8531 28.8578H10.8969C10.9125 28.6547 10.9469 28.4094 10.9984 28.1234C11.05 27.8375 11.0953 27.5953 11.1375 27.3969L13.0984 18.9484H15.6359L17.6672 27.2703C17.7855 27.7851 17.8701 28.307 17.9203 28.8328H17.9547C17.992 28.321 18.0625 27.8121 18.1656 27.3094L19.7891 18.9375H22.0969L19.2469 31.0438H16.5484L14.6156 23.0344C14.5594 22.8031 14.4958 22.5021 14.425 22.1312C14.3542 21.7604 14.3104 21.4896 14.2937 21.3188H14.2609C14.2391 21.5156 14.1953 21.8078 14.1297 22.1953C14.0641 22.5844 14.0125 22.8703 13.9734 23.0578L12.1563 31.0484H9.4125L6.54688 18.9484H8.89062L10.6578 27.4141C10.7106 27.6426 10.7518 27.8736 10.7813 28.1063Z" fill="white"/>
<defs>
<linearGradient id="paint0_linear_36_20" x1="7.02187" y1="12.3656" x2="21.6125" y2="37.6344" gradientUnits="userSpaceOnUse">
<stop stop-color="#2368C4"/>
<stop offset="0.5" stop-color="#1A5DBE"/>
<stop offset="1" stop-color="#1146AC"/>
</linearGradient>
</defs>
</svg>
